<svg width="24" height="24" viewBox="0 0 24 24" fill="none"
    xmlns="http://www.w3.org/2000/svg">
    <path fill-rule="evenodd" clip-rule="evenodd" d="M7 4C7 2.34315 8.34314 1 10 1H14C15.6569 1 17 2.34315 17 4V5H19C20.6569 5 22 6.34315 22 8V13.232C22.0004 13.2474 22.0004 13.2628 22 13.2782V18C22 19.6569 20.6569 21 19 21H5C3.34314 21 2 19.6569 2 18V13.278C1.99965 13.2628 1.99964 13.2475 2 13.2322V8C2 6.34315 3.34314 5 5 5H7V4ZM5 7C4.44771 7 4 7.44772 4 8V12.5708C6.49036 13.4948 9.18513 14 12 14C14.8149 14 17.5096 13.4948 20 12.5708V8C20 7.44772 19.5523 7 19 7H5ZM15 5H9V4C9 3.44772 9.44771 3 10 3H14C14.5523 3 15 3.44772 15 4V5ZM20 14.6923C17.4872 15.5405 14.7964 16 12 16C9.20361 16 6.51279 15.5405 4 14.6923V18C4 18.5523 4.44771 19 5 19H19C19.5523 19 20 18.5523 20 18V14.6923ZM11 12C11 11.4477 11.4477 11 12 11H12.01C12.5623 11 13.01 11.4477 13.01 12C13.01 12.5523 12.5623 13 12.01 13H12C11.4477 13 11 12.5523 11 12Z" fill="black"/>
</svg>
