<svg width="200" height="58" viewBox="0 0 200 58" fill="none"
    xmlns="http://www.w3.org/2000/svg">
    <path fill-rule="evenodd" clip-rule="evenodd" d="M181.586 11.5858C182.367 10.8048 183.633 10.8048 184.414 11.5858L198.414 25.5858C199.195 26.3668 199.195 27.6332 198.414 28.4142C197.633 29.1953 196.367 29.1953 195.586 28.4142L183 15.8284L170.414 28.4142C169.633 29.1953 168.367 29.1953 167.586 28.4142C166.805 27.6332 166.805 26.3668 167.586 25.5858L181.586 11.5858ZM183 31.8284L195.586 44.4142C196.367 45.1953 197.633 45.1953 198.414 44.4142C199.195 43.6332 199.195 42.3668 198.414 41.5858L184.414 27.5858C183.633 26.8048 182.367 26.8048 181.586 27.5858L167.586 41.5858C166.805 42.3668 166.805 43.6332 167.586 44.4142C168.367 45.1953 169.633 45.1953 170.414 44.4142L183 31.8284Z" fill="#3F51B5"/>
    <path d="M8.52273 11.0909V46H3.42614V11.0909H8.52273ZM22.9986 46.5795C21.3395 46.5795 19.8395 46.2727 18.4986 45.6591C17.1577 45.0341 16.0952 44.1307 15.3111 42.9489C14.5384 41.767 14.152 40.3182 14.152 38.6023C14.152 37.125 14.4361 35.9091 15.0043 34.9545C15.5724 34 16.3395 33.2443 17.3054 32.6875C18.2713 32.1307 19.3509 31.7102 20.544 31.4261C21.7372 31.142 22.9531 30.9261 24.1918 30.7784C25.7599 30.5966 27.0327 30.4489 28.0099 30.3352C28.9872 30.2102 29.6974 30.0114 30.1406 29.7386C30.5838 29.4659 30.8054 29.0227 30.8054 28.4091V28.2898C30.8054 26.8011 30.3849 25.6477 29.544 24.8295C28.7145 24.0114 27.4759 23.6023 25.8281 23.6023C24.1122 23.6023 22.7599 23.983 21.7713 24.7443C20.794 25.4943 20.1179 26.3295 19.7429 27.25L14.9531 26.1591C15.5213 24.5682 16.3509 23.2841 17.4418 22.3068C18.544 21.3182 19.8111 20.6023 21.2429 20.1591C22.6747 19.7045 24.1804 19.4773 25.7599 19.4773C26.8054 19.4773 27.9134 19.6023 29.0838 19.8523C30.2656 20.0909 31.3679 20.5341 32.3906 21.1818C33.4247 21.8295 34.2713 22.7557 34.9304 23.9602C35.5895 25.1534 35.919 26.7045 35.919 28.6136V46H30.9418V42.4205H30.7372C30.4077 43.0795 29.9134 43.7273 29.2543 44.3636C28.5952 45 27.7486 45.5284 26.7145 45.9489C25.6804 46.3693 24.4418 46.5795 22.9986 46.5795ZM24.1065 42.4886C25.5156 42.4886 26.7202 42.2102 27.7202 41.6534C28.7315 41.0966 29.4986 40.3693 30.0213 39.4716C30.5554 38.5625 30.8224 37.5909 30.8224 36.5568V33.1818C30.6406 33.3636 30.2884 33.5341 29.7656 33.6932C29.2543 33.8409 28.669 33.9716 28.0099 34.0852C27.3509 34.1875 26.7088 34.2841 26.0838 34.375C25.4588 34.4545 24.9361 34.5227 24.5156 34.5795C23.527 34.7045 22.6236 34.9148 21.8054 35.2102C20.9986 35.5057 20.3509 35.9318 19.8622 36.4886C19.3849 37.0341 19.1463 37.7614 19.1463 38.6705C19.1463 39.9318 19.6122 40.8864 20.544 41.5341C21.4759 42.1705 22.6634 42.4886 24.1065 42.4886ZM47.804 30.4545V46H42.7074V19.8182H47.5994V24.0795H47.9233C48.5256 22.6932 49.4688 21.5795 50.7528 20.7386C52.0483 19.8977 53.679 19.4773 55.6449 19.4773C57.429 19.4773 58.9915 19.8523 60.3324 20.6023C61.6733 21.3409 62.7131 22.4432 63.4517 23.9091C64.1903 25.375 64.5597 27.1875 64.5597 29.3466V46H59.4631V29.9602C59.4631 28.0625 58.9688 26.5795 57.9801 25.5114C56.9915 24.4318 55.6335 23.892 53.9062 23.892C52.7244 23.892 51.6733 24.1477 50.7528 24.6591C49.8438 25.1705 49.1222 25.9205 48.5881 26.9091C48.0653 27.8864 47.804 29.0682 47.804 30.4545ZM81.196 46.5114C79.0824 46.5114 77.196 45.9716 75.5369 44.892C73.8892 43.8011 72.5938 42.25 71.6506 40.2386C70.7188 38.2159 70.2528 35.7898 70.2528 32.9602C70.2528 30.1307 70.7244 27.7102 71.6676 25.6989C72.6222 23.6875 73.929 22.1477 75.5881 21.0795C77.2472 20.0114 79.1278 19.4773 81.2301 19.4773C82.8551 19.4773 84.1619 19.75 85.1506 20.2955C86.1506 20.8295 86.9233 21.4545 87.4688 22.1705C88.0256 22.8864 88.4574 23.517 88.7642 24.0625H89.071V11.0909H94.1676V46H89.1903V41.9261H88.7642C88.4574 42.483 88.0142 43.1193 87.4347 43.8352C86.8665 44.5511 86.0824 45.1761 85.0824 45.7102C84.0824 46.2443 82.7869 46.5114 81.196 46.5114ZM82.321 42.1648C83.7869 42.1648 85.0256 41.7784 86.0369 41.0057C87.0597 40.2216 87.8324 39.1364 88.3551 37.75C88.8892 36.3636 89.1562 34.75 89.1562 32.9091C89.1562 31.0909 88.8949 29.5 88.3722 28.1364C87.8494 26.7727 87.0824 25.7102 86.071 24.9489C85.0597 24.1875 83.8097 23.8068 82.321 23.8068C80.7869 23.8068 79.5085 24.2045 78.4858 25C77.4631 25.7955 76.6903 26.8807 76.1676 28.2557C75.6563 29.6307 75.4006 31.1818 75.4006 32.9091C75.4006 34.6591 75.6619 36.233 76.1847 37.6307C76.7074 39.0284 77.4801 40.1364 78.5028 40.9545C79.5369 41.7614 80.8097 42.1648 82.321 42.1648ZM111.243 46.5114C109.129 46.5114 107.243 45.9716 105.584 44.892C103.936 43.8011 102.641 42.25 101.697 40.2386C100.766 38.2159 100.3 35.7898 100.3 32.9602C100.3 30.1307 100.771 27.7102 101.714 25.6989C102.669 23.6875 103.976 22.1477 105.635 21.0795C107.294 20.0114 109.175 19.4773 111.277 19.4773C112.902 19.4773 114.209 19.75 115.197 20.2955C116.197 20.8295 116.97 21.4545 117.516 22.1705C118.072 22.8864 118.504 23.517 118.811 24.0625H119.118V11.0909H124.214V46H119.237V41.9261H118.811C118.504 42.483 118.061 43.1193 117.482 43.8352C116.913 44.5511 116.129 45.1761 115.129 45.7102C114.129 46.2443 112.834 46.5114 111.243 46.5114ZM112.368 42.1648C113.834 42.1648 115.072 41.7784 116.084 41.0057C117.107 40.2216 117.879 39.1364 118.402 37.75C118.936 36.3636 119.203 34.75 119.203 32.9091C119.203 31.0909 118.942 29.5 118.419 28.1364C117.896 26.7727 117.129 25.7102 116.118 24.9489C115.107 24.1875 113.857 23.8068 112.368 23.8068C110.834 23.8068 109.555 24.2045 108.533 25C107.51 25.7955 106.737 26.8807 106.214 28.2557C105.703 29.6307 105.447 31.1818 105.447 32.9091C105.447 34.6591 105.709 36.233 106.232 37.6307C106.754 39.0284 107.527 40.1364 108.55 40.9545C109.584 41.7614 110.857 42.1648 112.368 42.1648ZM141.29 46.5114C139.176 46.5114 137.29 45.9716 135.631 44.892C133.983 43.8011 132.688 42.25 131.744 40.2386C130.813 38.2159 130.347 35.7898 130.347 32.9602C130.347 30.1307 130.818 27.7102 131.761 25.6989C132.716 23.6875 134.023 22.1477 135.682 21.0795C137.341 20.0114 139.222 19.4773 141.324 19.4773C142.949 19.4773 144.256 19.75 145.244 20.2955C146.244 20.8295 147.017 21.4545 147.562 22.1705C148.119 22.8864 148.551 23.517 148.858 24.0625H149.165V11.0909H154.261V46H149.284V41.9261H148.858C148.551 42.483 148.108 43.1193 147.528 43.8352C146.96 44.5511 146.176 45.1761 145.176 45.7102C144.176 46.2443 142.881 46.5114 141.29 46.5114ZM142.415 42.1648C143.881 42.1648 145.119 41.7784 146.131 41.0057C147.153 40.2216 147.926 39.1364 148.449 37.75C148.983 36.3636 149.25 34.75 149.25 32.9091C149.25 31.0909 148.989 29.5 148.466 28.1364C147.943 26.7727 147.176 25.7102 146.165 24.9489C145.153 24.1875 143.903 23.8068 142.415 23.8068C140.881 23.8068 139.602 24.2045 138.58 25C137.557 25.7955 136.784 26.8807 136.261 28.2557C135.75 29.6307 135.494 31.1818 135.494 32.9091C135.494 34.6591 135.756 36.233 136.278 37.6307C136.801 39.0284 137.574 40.1364 138.597 40.9545C139.631 41.7614 140.903 42.1648 142.415 42.1648Z" fill="#212121"/>
</svg>
