<svg width="226" height="61" viewBox="0 0 226 61" fill="none"
    xmlns="http://www.w3.org/2000/svg">
    <path d="M4.1 48V10.9H10.35V48H4.1ZM35.0031 48V42.6L34.6531 41.45V32C34.6531 30.1667 34.1031 28.75 33.0031 27.75C31.9031 26.7167 30.2365 26.2 28.0031 26.2C26.5031 26.2 25.0198 26.4333 23.5531 26.9C22.1198 27.3667 20.9031 28.0167 19.9031 28.85L17.4531 24.3C18.8865 23.2 20.5865 22.3833 22.5531 21.85C24.5531 21.2833 26.6198 21 28.7531 21C32.6198 21 35.6031 21.9333 37.7031 23.8C39.8365 25.6333 40.9031 28.4833 40.9031 32.35V48H35.0031ZM26.6031 48.35C24.6031 48.35 22.8531 48.0167 21.3531 47.35C19.8531 46.65 18.6865 45.7 17.8531 44.5C17.0531 43.2667 16.6531 41.8833 16.6531 40.35C16.6531 38.85 17.0031 37.5 17.7031 36.3C18.4365 35.1 19.6198 34.15 21.2531 33.45C22.8865 32.75 25.0531 32.4 27.7531 32.4H35.5031V36.55H28.2031C26.0698 36.55 24.6365 36.9 23.9031 37.6C23.1698 38.2667 22.8031 39.1 22.8031 40.1C22.8031 41.2333 23.2531 42.1333 24.1531 42.8C25.0531 43.4667 26.3031 43.8 27.9031 43.8C29.4365 43.8 30.8031 43.45 32.0031 42.75C33.2365 42.05 34.1198 41.0167 34.6531 39.65L35.7031 43.4C35.1031 44.9667 34.0198 46.1833 32.4531 47.05C30.9198 47.9167 28.9698 48.35 26.6031 48.35ZM64.0742 21C66.2076 21 68.1076 21.4167 69.7742 22.25C71.4742 23.0833 72.8076 24.3667 73.7742 26.1C74.7409 27.8 75.2242 30 75.2242 32.7V48H68.9742V33.5C68.9742 31.1333 68.4076 29.3667 67.2742 28.2C66.1742 27.0333 64.6242 26.45 62.6242 26.45C61.1576 26.45 59.8576 26.75 58.7242 27.35C57.5909 27.95 56.7076 28.85 56.0742 30.05C55.4742 31.2167 55.1742 32.7 55.1742 34.5V48H48.9242V21.3H54.8742V28.5L53.8242 26.3C54.7576 24.6 56.1076 23.3 57.8742 22.4C59.6742 21.4667 61.7409 21 64.0742 21ZM94.5016 48.35C91.9349 48.35 89.6182 47.7833 87.5516 46.65C85.5182 45.4833 83.9182 43.8833 82.7516 41.85C81.5849 39.8167 81.0016 37.4167 81.0016 34.65C81.0016 31.8833 81.5849 29.4833 82.7516 27.45C83.9182 25.4167 85.5182 23.8333 87.5516 22.7C89.6182 21.5667 91.9349 21 94.5016 21C96.7349 21 98.7349 21.5 100.502 22.5C102.268 23.4667 103.668 24.95 104.702 26.95C105.735 28.95 106.252 31.5167 106.252 34.65C106.252 37.75 105.752 40.3167 104.752 42.35C103.752 44.35 102.368 45.85 100.602 46.85C98.8349 47.85 96.8016 48.35 94.5016 48.35ZM95.2516 43C96.7516 43 98.0849 42.6667 99.2516 42C100.452 41.3333 101.402 40.3667 102.102 39.1C102.835 37.8333 103.202 36.35 103.202 34.65C103.202 32.9167 102.835 31.4333 102.102 30.2C101.402 28.9333 100.452 27.9667 99.2516 27.3C98.0849 26.6333 96.7516 26.3 95.2516 26.3C93.7516 26.3 92.4016 26.6333 91.2016 27.3C90.0349 27.9667 89.0849 28.9333 88.3516 30.2C87.6516 31.4333 87.3016 32.9167 87.3016 34.65C87.3016 36.35 87.6516 37.8333 88.3516 39.1C89.0849 40.3667 90.0349 41.3333 91.2016 42C92.4016 42.6667 93.7516 43 95.2516 43ZM103.352 48V41.7L103.602 34.6L103.102 27.5V10.9H109.302V48H103.352ZM128.828 48.35C126.261 48.35 123.944 47.7833 121.878 46.65C119.844 45.4833 118.244 43.8833 117.078 41.85C115.911 39.8167 115.328 37.4167 115.328 34.65C115.328 31.8833 115.911 29.4833 117.078 27.45C118.244 25.4167 119.844 23.8333 121.878 22.7C123.944 21.5667 126.261 21 128.828 21C131.061 21 133.061 21.5 134.828 22.5C136.594 23.4667 137.994 24.95 139.028 26.95C140.061 28.95 140.578 31.5167 140.578 34.65C140.578 37.75 140.078 40.3167 139.078 42.35C138.078 44.35 136.694 45.85 134.928 46.85C133.161 47.85 131.128 48.35 128.828 48.35ZM129.578 43C131.078 43 132.411 42.6667 133.578 42C134.778 41.3333 135.728 40.3667 136.428 39.1C137.161 37.8333 137.528 36.35 137.528 34.65C137.528 32.9167 137.161 31.4333 136.428 30.2C135.728 28.9333 134.778 27.9667 133.578 27.3C132.411 26.6333 131.078 26.3 129.578 26.3C128.078 26.3 126.728 26.6333 125.528 27.3C124.361 27.9667 123.411 28.9333 122.678 30.2C121.978 31.4333 121.628 32.9167 121.628 34.65C121.628 36.35 121.978 37.8333 122.678 39.1C123.411 40.3667 124.361 41.3333 125.528 42C126.728 42.6667 128.078 43 129.578 43ZM137.678 48V41.7L137.928 34.6L137.428 27.5V10.9H143.628V48H137.678ZM163.154 48.35C160.587 48.35 158.271 47.7833 156.204 46.65C154.171 45.4833 152.571 43.8833 151.404 41.85C150.237 39.8167 149.654 37.4167 149.654 34.65C149.654 31.8833 150.237 29.4833 151.404 27.45C152.571 25.4167 154.171 23.8333 156.204 22.7C158.271 21.5667 160.587 21 163.154 21C165.387 21 167.387 21.5 169.154 22.5C170.921 23.4667 172.321 24.95 173.354 26.95C174.387 28.95 174.904 31.5167 174.904 34.65C174.904 37.75 174.404 40.3167 173.404 42.35C172.404 44.35 171.021 45.85 169.254 46.85C167.487 47.85 165.454 48.35 163.154 48.35ZM163.904 43C165.404 43 166.737 42.6667 167.904 42C169.104 41.3333 170.054 40.3667 170.754 39.1C171.487 37.8333 171.854 36.35 171.854 34.65C171.854 32.9167 171.487 31.4333 170.754 30.2C170.054 28.9333 169.104 27.9667 167.904 27.3C166.737 26.6333 165.404 26.3 163.904 26.3C162.404 26.3 161.054 26.6333 159.854 27.3C158.687 27.9667 157.737 28.9333 157.004 30.2C156.304 31.4333 155.954 32.9167 155.954 34.65C155.954 36.35 156.304 37.8333 157.004 39.1C157.737 40.3667 158.687 41.3333 159.854 42C161.054 42.6667 162.404 43 163.904 43ZM172.004 48V41.7L172.254 34.6L171.754 27.5V10.9H177.954V48H172.004Z" fill="#212121"/>
    <path fill-rule="evenodd" clip-rule="evenodd" d="M206.527 12.3602C207.34 11.5466 208.66 11.5466 209.473 12.3602L224.056 26.9435C224.87 27.7571 224.87 29.0762 224.056 29.8898C223.243 30.7034 221.924 30.7034 221.11 29.8898L208 16.7796L194.89 29.8898C194.076 30.7034 192.757 30.7034 191.944 29.8898C191.13 29.0762 191.13 27.7571 191.944 26.9435L206.527 12.3602ZM208 33.4463L221.11 46.5565C221.924 47.3701 223.243 47.3701 224.056 46.5565C224.87 45.7429 224.87 44.4238 224.056 43.6102L209.473 29.0269C208.66 28.2133 207.34 28.2133 206.527 29.0269L191.944 43.6102C191.13 44.4238 191.13 45.7429 191.944 46.5565C192.757 47.3701 194.076 47.3701 194.89 46.5565L208 33.4463Z" fill="#3F51B5"/>
</svg>
