<svg width="190" height="58" viewBox="0 0 190 58" fill="none"
    xmlns="http://www.w3.org/2000/svg">
    <path fill-rule="evenodd" clip-rule="evenodd" d="M171.527 10.8602C172.34 10.0466 173.66 10.0466 174.473 10.8602L189.056 25.4435C189.87 26.2571 189.87 27.5762 189.056 28.3898C188.243 29.2034 186.924 29.2034 186.11 28.3898L173 15.2796L159.89 28.3898C159.076 29.2034 157.757 29.2034 156.944 28.3898C156.13 27.5762 156.13 26.2571 156.944 25.4435L171.527 10.8602ZM173 31.9463L186.11 45.0565C186.924 45.8701 188.243 45.8701 189.056 45.0565C189.87 44.2429 189.87 42.9238 189.056 42.1102L174.473 27.5269C173.66 26.7133 172.34 26.7133 171.527 27.5269L156.944 42.1102C156.13 42.9238 156.13 44.2429 156.944 45.0565C157.757 45.8701 159.076 45.8701 159.89 45.0565L173 31.9463Z" fill="#3F51B5"/>
    <path d="M2.70996 47H9.17969V10.7451H2.70996V47ZM13.3789 40.1641C13.3789 42.5404 14.1195 44.3389 15.6006 45.5596C17.0817 46.7803 19.0267 47.3906 21.4355 47.3906C23.4863 47.3906 25.179 47.0163 26.5137 46.2676C27.8646 45.5026 28.8086 44.6481 29.3457 43.7041C29.4108 44.3063 29.5166 44.9085 29.6631 45.5107C29.8258 46.0967 30.0293 46.5931 30.2734 47H36.5479V46.6338C36.2386 45.9665 36.0026 45.1934 35.8398 44.3145C35.6771 43.4193 35.5957 42.4671 35.5957 41.458V30.9355C35.5957 28.0872 34.7249 26.0202 32.9834 24.7344C31.2581 23.4323 28.7598 22.7812 25.4883 22.7812C22.2168 22.7812 19.6126 23.4567 17.6758 24.8076C15.7552 26.1585 14.7949 27.8757 14.7949 29.959V30.5205L20.874 30.5449V30.0811C20.874 29.1208 21.224 28.3558 21.9238 27.7861C22.6237 27.2002 23.6898 26.9072 25.1221 26.9072C26.5869 26.9072 27.6286 27.249 28.2471 27.9326C28.8656 28.5999 29.1748 29.5521 29.1748 30.7891V32.4492H23.6816C20.6055 32.4492 18.1152 33.1328 16.2109 34.5C14.3229 35.8672 13.3789 37.7552 13.3789 40.1641ZM19.751 39.7246C19.751 38.5202 20.1986 37.6169 21.0938 37.0146C21.9889 36.4124 23.3724 36.1113 25.2441 36.1113H29.1748V38.5771C29.1748 39.8141 28.6214 40.9128 27.5146 41.873C26.4242 42.8333 25.1709 43.3135 23.7549 43.3135C22.4202 43.3135 21.4193 43.0042 20.752 42.3857C20.0846 41.7673 19.751 40.8802 19.751 39.7246ZM40.9668 47H47.3633V31.2285C47.8353 30.1868 48.4945 29.3568 49.3408 28.7383C50.2035 28.1198 51.18 27.8105 52.2705 27.8105C53.54 27.8105 54.5166 28.1523 55.2002 28.8359C55.9001 29.5195 56.25 30.6751 56.25 32.3027V47H62.6709V31.6436C62.6709 28.4697 61.9385 26.2155 60.4736 24.8809C59.0088 23.5299 57.0882 22.8545 54.7119 22.8545C53.0029 22.8545 51.5055 23.1882 50.2197 23.8555C48.9502 24.5065 47.9818 25.3936 47.3145 26.5166H47.2412L47.168 23.3916H40.9668V47ZM66.5039 35.5742C66.5039 39.041 67.3991 41.8975 69.1895 44.1436C70.9798 46.3734 73.4131 47.4883 76.4893 47.4883C78.182 47.4883 79.6468 47.1302 80.8838 46.4141C82.137 45.6979 83.0811 44.8271 83.7158 43.8018H83.7646L83.8379 47H89.9658V10.7451H83.6426V26.0283C82.9753 25.0843 82.0394 24.3275 80.835 23.7578C79.6305 23.1882 78.182 22.9033 76.4893 22.9033C73.4945 22.9033 71.0775 24.0182 69.2383 26.248C67.4154 28.4779 66.5039 31.3262 66.5039 34.793V35.5742ZM73.0225 35.623V34.7686C73.0225 32.6689 73.4619 30.9518 74.3408 29.6172C75.236 28.2826 76.6113 27.6152 78.4668 27.6152C79.7363 27.6152 80.8024 27.9408 81.665 28.5918C82.5439 29.2266 83.1706 29.9997 83.5449 30.9111V39.334C83.1543 40.2454 82.5195 41.0511 81.6406 41.751C80.778 42.4508 79.7201 42.8008 78.4668 42.8008C76.6113 42.8008 75.236 42.1335 74.3408 40.7988C73.4619 39.4479 73.0225 37.7227 73.0225 35.623ZM93.9941 35.5742C93.9941 39.041 94.8893 41.8975 96.6797 44.1436C98.4701 46.3734 100.903 47.4883 103.979 47.4883C105.672 47.4883 107.137 47.1302 108.374 46.4141C109.627 45.6979 110.571 44.8271 111.206 43.8018H111.255L111.328 47H117.456V10.7451H111.133V26.0283C110.465 25.0843 109.53 24.3275 108.325 23.7578C107.121 23.1882 105.672 22.9033 103.979 22.9033C100.985 22.9033 98.5677 24.0182 96.7285 26.248C94.9056 28.4779 93.9941 31.3262 93.9941 34.793V35.5742ZM100.513 35.623V34.7686C100.513 32.6689 100.952 30.9518 101.831 29.6172C102.726 28.2826 104.102 27.6152 105.957 27.6152C107.227 27.6152 108.293 27.9408 109.155 28.5918C110.034 29.2266 110.661 29.9997 111.035 30.9111V39.334C110.645 40.2454 110.01 41.0511 109.131 41.751C108.268 42.4508 107.21 42.8008 105.957 42.8008C104.102 42.8008 102.726 42.1335 101.831 40.7988C100.952 39.4479 100.513 37.7227 100.513 35.623ZM121.484 35.5742C121.484 39.041 122.38 41.8975 124.17 44.1436C125.96 46.3734 128.394 47.4883 131.47 47.4883C133.162 47.4883 134.627 47.1302 135.864 46.4141C137.118 45.6979 138.062 44.8271 138.696 43.8018H138.745L138.818 47H144.946V10.7451H138.623V26.0283C137.956 25.0843 137.02 24.3275 135.815 23.7578C134.611 23.1882 133.162 22.9033 131.47 22.9033C128.475 22.9033 126.058 24.0182 124.219 26.248C122.396 28.4779 121.484 31.3262 121.484 34.793V35.5742ZM128.003 35.623V34.7686C128.003 32.6689 128.442 30.9518 129.321 29.6172C130.216 28.2826 131.592 27.6152 133.447 27.6152C134.717 27.6152 135.783 27.9408 136.646 28.5918C137.524 29.2266 138.151 29.9997 138.525 30.9111V39.334C138.135 40.2454 137.5 41.0511 136.621 41.751C135.758 42.4508 134.701 42.8008 133.447 42.8008C131.592 42.8008 130.216 42.1335 129.321 40.7988C128.442 39.4479 128.003 37.7227 128.003 35.623Z" fill="#212121"/>
</svg>
