<svg width="20" height="20" viewBox="0 0 20 20" fill="none"
    xmlns="http://www.w3.org/2000/svg">
    <path fill-rule="evenodd" clip-rule="evenodd" d="M11.3538 0.888395L18.6316 18.0045C18.7085 18.1786 18.75 18.3705 18.7451 18.5714C18.7451 19.3616 18.0933 20 17.2876 20C16.676 20 16.1572 19.6339 15.9387 19.1116L14.4934 15.7143H5.50171L4.05762 19.1116C3.84277 19.6339 3.31909 20 2.70874 20C1.90186 20 1.25 19.3616 1.25 18.5714C1.25 18.3705 1.2915 18.1786 1.36841 18.0045L8.65112 0.888395C8.86475 0.366068 9.38965 0 10 0C10.6104 0 11.1353 0.366068 11.3538 0.888395ZM10 5.14286L6.71875 12.8572H13.2813L10 5.14286Z" fill="#6B6C7E"/>
</svg>
