<svg width="24" height="24" viewBox="0 0 24 24" fill="none"
    xmlns="http://www.w3.org/2000/svg">
    <path d="M10.6377 3.87578C10.6377 5.22904 10.6377 6.58229 10.6377 7.94024C10.6377 9.29819 10.6377 9.15723 10.6377 10.5152V12.0047C10.6377 13.358 10.6377 14.7112 10.6377 16.0692C10.6377 16.882 10.6377 17.6949 10.6377 18.5078C10.6377 19.457 11.3167 20.1336 12.2691 20.2699L13.9006 20.4061V21.75H4.24869V20.3967L5.88013 20.2605C6.83258 20.1242 7.51156 19.4476 7.51156 18.4984C7.51156 17.6855 7.51156 16.8727 7.51156 16.0598C7.51156 14.7065 7.51156 13.3533 7.51156 11.9953V10.5058C7.51156 9.15253 7.51156 9.2888 7.51156 7.93084C7.51156 6.57289 7.51156 5.22434 7.51156 3.86639H4.11667C3.16422 3.86639 2.48524 4.54301 2.3485 5.3559L1.943 7.93554H0.0380859L0.311563 2.6541C0.311563 2.51783 0.448302 2.25 0.717064 2.25H17.4322C17.5689 2.25 17.8377 2.38627 17.8377 2.6541L18.1112 7.93554H16.211L15.8055 5.3606C15.532 4.54771 14.7163 3.87108 13.9053 3.87108H10.6377V3.87578Z" fill="#6B6C7E"/>
    <path d="M19.6058 10.7783C19.6058 11.5912 19.6058 12.4041 19.6058 13.217C19.6058 14.0299 19.6058 14.0299 19.6058 14.8428V15.7919C19.6058 16.6048 19.6058 17.4177 19.6058 18.2306C19.6058 18.7709 19.6058 19.1797 19.6058 19.7201C19.6058 20.2605 20.0113 20.6693 20.5582 20.8055L21.3739 20.9418V21.75H15.8007V20.9371L16.6164 20.8008C17.1586 20.8008 17.5688 20.2605 17.5688 19.7154C17.5688 19.175 17.5688 18.7662 17.5688 18.2259C17.5688 17.413 17.5688 16.6001 17.5688 15.7872V14.8428C17.5688 14.0299 17.5688 14.0299 17.5688 13.217C17.5688 12.4041 17.5688 11.5912 17.5688 10.7783H15.9374C15.3952 10.7783 14.9849 11.1824 14.8482 11.5912L14.5747 13.0807H13.3535L13.4903 9.9654C13.4903 9.82914 13.627 9.69287 13.7637 9.69287H23.5476C23.6844 9.69287 23.8211 9.82914 23.8211 9.9654L23.9578 13.0807H22.7366L22.1944 11.7274C22.0576 11.1871 21.6521 10.9146 21.1052 10.9146H19.6105C19.6058 10.9146 19.6058 10.7783 19.6058 10.7783Z" fill="#6B6C7E"/>
</svg>
